<?xml version="1.0"?>
<svg xmlns="http://www.w3.org/2000/svg" height="512px" viewBox="0 0 512 512" width="512px"><path d="m482 0h-482v121h482zm-406.027344 75c-8.285156 0-15-6.714844-15-15s6.714844-15 15-15 15 6.714844 15 15-6.714844 15-15 15zm60 0c-8.285156 0-15-6.714844-15-15s6.714844-15 15-15 15 6.714844 15 15-6.714844 15-15 15zm60 0c-8.285156 0-15-6.714844-15-15s6.714844-15 15-15 15 6.714844 15 15-6.714844 15-15 15zm135.027344 0h-60v-30h60zm90 0h-60v-30h60zm0 0" fill="#FFFFFF"/><path d="m91 346h150v30h-150zm0 0" fill="#FFFFFF"/><path d="m91 226h150v30h-150zm0 0" fill="#FFFFFF"/><path d="m331 211h181v45h-181zm0 0" fill="#FFFFFF"/><path d="m331 466h181v46h-181zm0 0" fill="#FFFFFF"/><path d="m331 286h181v150h-181zm0 0" fill="#FFFFFF"/><path d="m301 181h181v-30h-482v300h301zm-30 225h-210v-90h210zm0-120h-210v-90h210zm0 0" fill="#FFFFFF"/></svg>
